<svg xmlns="http://www.w3.org/2000/svg"  viewBox="0 0 64 64" width="64px" height="64px"><linearGradient id="XaTK8~d0j5SuxPhjSQcgLa" x1="32.585" x2="32.585" y1="9.984" y2="55.455" gradientUnits="userSpaceOnUse"><stop offset="0" stop-color="#6dc7ff"/><stop offset="1" stop-color="#e6abff"/></linearGradient><path fill="url(#XaTK8~d0j5SuxPhjSQcgLa)" d="M56.159,22.431l0.767-0.582c2.073-1.573,1.44-4.84-1.07-5.524l-21.821-5.951	c-3.188-0.869-6.597-0.266-9.293,1.643L7.9,23.946c-1.313,0.93-1.161,2.924,0.279,3.644l1.787,0.893L7.9,29.946	c-1.313,0.93-1.161,2.924,0.279,3.644l1.787,0.893L7.9,35.946c-1.313,0.93-1.161,2.924,0.279,3.644l1.787,0.893L7.9,41.946	c-1.313,0.93-1.161,2.924,0.279,3.644l16.617,8.309c5.023,2.512,11.037,1.953,15.511-1.442l16.619-12.608	c1.985-1.506,1.484-4.561-0.767-5.418l0.767-0.582c1.985-1.506,1.484-4.561-0.767-5.418l0.767-0.582	C58.912,26.343,58.41,23.288,56.159,22.431z"/><path fill="#fff" d="M57.248,21.86L40.912,34.254c-2.809,2.13-6.141,3.218-9.501,3.218	c-2.398,0.001-4.813-0.554-7.063-1.679L8.853,28.045l-1.531,1.085c-0.905,0.642-1.396,1.686-1.312,2.792	c0.084,1.107,0.728,2.065,1.721,2.562l16.617,8.309c2.25,1.125,4.664,1.68,7.063,1.679c3.36,0,6.692-1.088,9.501-3.218	l16.619-12.608c1.265-0.959,1.862-2.524,1.561-4.083C58.87,23.42,58.195,22.458,57.248,21.86z"/><linearGradient id="XaTK8~d0j5SuxPhjSQcgLb" x1="32.584" x2="32.584" y1="8.98" y2="56.473" gradientUnits="userSpaceOnUse"><stop offset="0" stop-color="#1a6dff"/><stop offset="1" stop-color="#c822ff"/></linearGradient><path fill="url(#XaTK8~d0j5SuxPhjSQcgLb)" d="M59.092,24.563c-0.169-0.872-0.607-1.633-1.222-2.214c-0.109,0.102-0.218,0.204-0.339,0.296	c1.265-0.959,1.862-2.524,1.561-4.083c-0.302-1.558-1.441-2.786-2.973-3.204L34.298,9.408c-3.488-0.952-7.184-0.298-10.135,1.792	L7.322,23.129c-0.905,0.642-1.396,1.686-1.312,2.792c0.084,1.107,0.728,2.065,1.721,2.562l0.294,0.147l-0.703,0.498	c-0.905,0.642-1.396,1.685-1.312,2.792c0.07,0.919,0.54,1.719,1.261,2.254c-0.869,0.645-1.344,1.663-1.261,2.746	c0.005,0.069,0.031,0.131,0.041,0.199c-0.047,0.26-0.062,0.529-0.041,0.802c0.084,1.106,0.728,2.064,1.721,2.562l0.293,0.146	l-0.703,0.498c-0.906,0.643-1.396,1.688-1.313,2.795c0.085,1.106,0.729,2.063,1.722,2.561l16.618,8.309	c2.25,1.125,4.664,1.68,7.063,1.68c3.36,0,6.691-1.089,9.5-3.219l16.62-12.608c1.265-0.96,1.862-2.523,1.561-4.082	c-0.169-0.872-0.604-1.635-1.22-2.215c0.952-0.898,1.415-2.177,1.259-3.483c0.052-0.426,0.046-0.864-0.039-1.302	c-0.123-0.638-0.4-1.209-0.774-1.702C59.027,26.937,59.321,25.749,59.092,24.563z M8.005,25.77	c-0.015-0.192,0.002-0.674,0.474-1.008l16.841-11.93c1.72-1.218,3.742-1.851,5.798-1.851c0.886,0,1.778,0.117,2.655,0.356	l21.821,5.951c0.803,0.219,1.376,0.837,1.534,1.655c0.158,0.817-0.143,1.605-0.806,2.108L39.703,33.66	c-4.203,3.189-9.745,3.702-14.46,1.344L8.626,26.695C8.109,26.437,8.02,25.962,8.005,25.77z M8.479,30.762l1.576-1.117l-0.756-0.378	l15.05,7.526c2.25,1.125,4.664,1.68,7.063,1.679c3.36,0,6.692-1.088,9.501-3.218l15.345-11.642c0.444,0.309,0.761,0.767,0.871,1.332	c0.158,0.817-0.143,1.605-0.806,2.108L39.703,39.66c-2.242,1.701-4.866,2.633-7.542,2.781c-0.194,0.009-0.388,0.022-0.583,0.024	c-0.118,0.001-0.236-0.002-0.353-0.004c-0.439-0.005-0.879-0.034-1.318-0.076c-1.592-0.177-3.169-0.634-4.664-1.381L8.626,32.695	c-0.517-0.259-0.606-0.733-0.621-0.926C7.99,31.578,8.007,31.096,8.479,30.762z M56.322,39.052L39.702,51.66	c-4.202,3.188-9.744,3.703-14.459,1.344L8.625,44.695c-0.517-0.259-0.607-0.732-0.622-0.925c-0.015-0.191,0.003-0.675,0.475-1.009	l1.576-1.116l14.295,7.148c2.25,1.125,4.664,1.679,7.063,1.679c3.36,0,6.692-1.088,9.501-3.218l15.345-11.642	c0.444,0.309,0.761,0.767,0.871,1.331C57.286,37.761,56.985,38.549,56.322,39.052z"/></svg>