<svg xmlns="http://www.w3.org/2000/svg"  viewBox="0 0 64 64" width="64px" height="64px"><linearGradient id="s7_8sdI_xW7WLGRhYx6Kqa" x1="32" x2="32" y1="6" y2="58" gradientUnits="userSpaceOnUse" spreadMethod="reflect"><stop offset="0" stop-color="#1a6dff"/><stop offset="1" stop-color="#c822ff"/></linearGradient><path fill="url(#s7_8sdI_xW7WLGRhYx6Kqa)" d="M32,6C17.66,6,6,17.66,6,32c0,14.34,11.66,26,26,26s26-11.66,26-26C58,17.66,46.34,6,32,6z M32,8c5.7,0,10.94,2,15.07,5.34l-4.6,13.5L20.61,10.88C24,9.04,27.88,8,32,8z M41.79,28.83l-3.83,11.26H25.89l-3.64-11.27L32,21.67 L41.79,28.83z M8,32c0-8.34,4.28-15.7,10.76-20l11.55,8.43L8.43,36.49C8.15,35.03,8,33.53,8,32z M8.93,38.6l11.62-8.53l8.29,25.72 C19.31,54.53,11.53,47.65,8.93,38.6z M32,56c-0.33,0-0.66-0.01-0.99-0.03l-4.48-14.05h27.24C49.95,50.3,41.63,56,32,56z M40.07,40.09l8.62-25.31C53.19,19.14,56,25.25,56,32c0,2.84-0.5,5.56-1.41,8.09H40.07z"/><linearGradient id="s7_8sdI_xW7WLGRhYx6Kqb" x1="39.835" x2="39.835" y1="44" y2="53.99" gradientUnits="userSpaceOnUse" spreadMethod="reflect"><stop offset="0" stop-color="#6dc7ff"/><stop offset="1" stop-color="#e6abff"/></linearGradient><path fill="url(#s7_8sdI_xW7WLGRhYx6Kqb)" d="M50.4,44c-3.92,6.032-10.64,9.831-17.92,9.99L29.27,44H50.4z"/><linearGradient id="s7_8sdI_xW7WLGRhYx6Kqc" x1="18.46" x2="18.46" y1="14.46" y2="32.84" gradientUnits="userSpaceOnUse" spreadMethod="reflect"><stop offset="0" stop-color="#6dc7ff"/><stop offset="1" stop-color="#e6abff"/></linearGradient><path fill="url(#s7_8sdI_xW7WLGRhYx6Kqc)" d="M26.92,20.43l-16.9,12.41C10.01,32.56,10,32.28,10,32c0-6.92,3.24-13.38,8.74-17.54 L26.92,20.43z"/><linearGradient id="s7_8sdI_xW7WLGRhYx6Kqd" x1="18.575" x2="18.575" y1="33.32" y2="53.13" gradientUnits="userSpaceOnUse" spreadMethod="reflect"><stop offset="0" stop-color="#6dc7ff"/><stop offset="1" stop-color="#e6abff"/></linearGradient><path fill="url(#s7_8sdI_xW7WLGRhYx6Kqd)" d="M25.88,53.13c-6.75-1.95-12.22-7.06-14.61-13.77l8.23-6.04L25.88,53.13z"/><linearGradient id="s7_8sdI_xW7WLGRhYx6Kqe" x1="48.43" x2="48.43" y1="18.66" y2="38" gradientUnits="userSpaceOnUse" spreadMethod="reflect"><stop offset="0" stop-color="#6dc7ff"/><stop offset="1" stop-color="#e6abff"/></linearGradient><path fill="url(#s7_8sdI_xW7WLGRhYx6Kqe)" d="M54,31.938c0,2.06-0.29,4.091-0.86,6.062H42.86l6.62-19.34C52.41,22.462,54,27.071,54,31.938z"/><linearGradient id="s7_8sdI_xW7WLGRhYx6Kqf" x1="34.64" x2="34.64" y1="10" y2="23.62" gradientUnits="userSpaceOnUse" spreadMethod="reflect"><stop offset="0" stop-color="#6dc7ff"/><stop offset="1" stop-color="#e6abff"/></linearGradient><path fill="url(#s7_8sdI_xW7WLGRhYx6Kqf)" d="M44.71,14.06l-3.26,9.56L24.57,11.29C26.94,10.44,29.46,10,32,10 C36.61,10,40.98,11.4,44.71,14.06z"/></svg>